<svg xmlns="http://www.w3.org/2000/svg" width="125.043" height="46" viewBox="0 0 125.043 46">
  <path id="logo-thermas" d="M120.4,46c-.775-.024-1.55-.006-2.325-.006-.939,0-1.879-.005-2.819,0a7.943,7.943,0,0,1-1.988-.283,2.185,2.185,0,0,1-1.652-1.929,30.082,30.082,0,0,1-.113-4.63,7.823,7.823,0,0,1,.284-1.923,1.843,1.843,0,0,1,1.424-1.4,10.218,10.218,0,0,1,1.423-.279,36.019,36.019,0,0,1,5.615-.116,13.625,13.625,0,0,1,2.965.369,2,2,0,0,1,1.546,1.515,8.177,8.177,0,0,1,.282,2.2c-.022.986.026,1.975-.019,2.959a15.056,15.056,0,0,1-.266,1.706,1.805,1.805,0,0,1-1.663,1.517,13.162,13.162,0,0,1-2.472.293Q120.511,46,120.4,46Zm-4.835-7.634c-.469.129-.572.252-.694.731a8.925,8.925,0,0,0-.126,2.365,4.621,4.621,0,0,0,.179,1.089.577.577,0,0,0,.509.5c.593.069,1.179.226,1.772.247a19.769,19.769,0,0,0,3.571-.129c.355-.053.716-.149.843-.529a3.4,3.4,0,0,0,.166-.952q.038-.987,0-1.973a2.89,2.89,0,0,0-.179-.944.73.73,0,0,0-.455-.38,7.662,7.662,0,0,0-1.31-.154c-.516-.025-1.033-.006-1.725-.006a7.868,7.868,0,0,1-.847,0c-.157,0-.319-.009-.483-.009A4.5,4.5,0,0,0,115.564,38.363ZM9.856,45.852H.443V35.545H3.578c2.117,0,4.234,0,6.351.011a6.55,6.55,0,0,1,1.3.181,1.643,1.643,0,0,1,1.169.9,3.449,3.449,0,0,1,.088,3.277,6.112,6.112,0,0,1-.474.668,4.1,4.1,0,0,0,.3.3,2.653,2.653,0,0,1,.833,2.78c-.04.2-.047.415-.1.616a2.127,2.127,0,0,1-2.137,1.57,3.42,3.42,0,0,1-.379.018C10.309,45.866,10.081,45.852,9.856,45.852ZM4.121,41.759a3.932,3.932,0,0,0-.436.047v1.5c1.86,0,3.642,0,5.425,0,.472,0,.71-.183.757-.543.08-.607,0-.75-.563-.876a3.91,3.91,0,0,0-.819-.126q-1.032-.009-2.064-.008Q5.271,41.755,4.121,41.759Zm.1-3.669c-.177,0-.354.025-.537.039v1.277c.275-.012.523-.031.772-.032q1.005,0,2.013,0H7.9c.47,0,.939.005,1.408-.011s.555-.125.564-.6c.007-.3-.088-.5-.4-.563a4.412,4.412,0,0,0-.753-.108q-1.019-.006-2.038-.005Q5.454,38.086,4.217,38.09Zm56.62,7.7V35.574H71.792V38.21H64.086v1.133H71.5a10.2,10.2,0,0,1,.034,1.364c.009.419,0,.838,0,1.311H64.089v1.261H71.81V45.76c-.27.066-3.392.1-6.25.1C63.334,45.864,61.269,45.841,60.838,45.791Zm24.527-.309c-.155-.283-.313-.567-.448-.86a.713.713,0,0,0-.751-.476c-1.715.026-3.43.023-5.146,0a.7.7,0,0,0-.71.441c-.17.329-.379.639-.549.969a.437.437,0,0,1-.422.3c-1.149-.015-2.3-.021-3.447-.032-.02,0-.038-.025-.1-.068.331-.677.662-1.364,1-2.046,1.264-2.537,2.538-5.068,3.788-7.612a.838.838,0,0,1,.9-.567c1.6.041,3.194.016,4.854.016,1.674,3.369,3.33,6.7,4.983,10.038.027.054,0,.133,0,.234-.113.011-.225.031-.337.032l-.892,0c-.69,0-1.38-.007-2.068.015h-.038A.64.64,0,0,1,85.364,45.482Zm-4.043-7.319c-.161.279-.3.574-.434.867-.369.8-.731,1.594-1.108,2.419H83.45c-.555-1.156-1.059-2.218-1.577-3.275-.076-.157-.172-.235-.271-.235S81.408,38.013,81.322,38.163ZM52.458,45.477q-.854-1.189-1.7-2.383-1.692-2.4-3.384-4.793c-.02-.029-.065-.041-.1-.058.28,2.425.064,4.859.13,7.288,0,.088,0,.176,0,.293H44.185V35.576h5.138l5.39,7.52V35.622a3.872,3.872,0,0,1,1.124-.076c.169.005.337.011.5.006.516-.016,1.033,0,1.547,0,.13.488.164,9.284.035,10.3H56.68c-1.152,0-2.3-.017-3.457.009h-.029A.835.835,0,0,1,52.458,45.477ZM47.15,38.024l.1.164-.035-.2ZM25.872,45.577c-.155-.361-.41-.679-.574-1.036a.555.555,0,0,0-.579-.391c-1.787.013-3.574.009-5.36,0a.47.47,0,0,0-.493.3c-.195.393-.455.754-.674,1.137a.455.455,0,0,1-.445.267c-1.148-.009-2.3,0-3.525,0,.089-.218.144-.381.219-.533q2.312-4.654,4.622-9.309a.707.707,0,0,1,.746-.472c1.643.03,3.287.013,4.955.013.854,1.712,1.72,3.4,2.544,5.115s1.745,3.352,2.542,5.187H28.341c-.658,0-1.316,0-1.975,0h-.019A.426.426,0,0,1,25.872,45.577Zm-4.185-7.259Q21,39.725,20.336,41.137a1.156,1.156,0,0,0-.046.3H23.9c-.556-1.1-1.076-2.151-1.611-3.189a.3.3,0,0,0-.264-.181A.392.392,0,0,0,21.687,38.319Zm84.471,7.533V35.565h3.16V45.847l-1.58.005Zm-6.092-.03c0-.585-.012-1.143,0-1.7a.946.946,0,0,0-.988-1.081c-1.591-.029-3.183-.009-4.832-.009v2.79h-3.14c-.118-.449-.157-9.1-.034-10.278h.394q4.513,0,9.024,0a4.268,4.268,0,0,1,1.492.28,1.945,1.945,0,0,1,1.3,1.816,16.007,16.007,0,0,1,0,2.044,1.919,1.919,0,0,1-.608,1.365,5.08,5.08,0,0,0-.441.524,3.88,3.88,0,0,1,.494.276,1.185,1.185,0,0,1,.56.926c.016,1,.005,2.011.005,3.046Zm-.942-5.6c.758.021,1-.258.928-.934-.007-.069,0-.141,0-.21-.017-.521-.189-.706-.717-.71-1.616-.01-3.232-.008-4.847-.007a.975.975,0,0,0-.212.052v1.8h.564c.881,0,1.763-.013,2.644-.013C98.031,40.205,98.578,40.21,99.125,40.224Zm-67.642,5.59V35.573H34.7v7.582h7.03v2.659ZM45.728,28.7a4.542,4.542,0,0,1-1.166-.592,1.051,1.051,0,0,1-.414-.912c.019-2.634.015-5.268.006-7.9a1.065,1.065,0,0,1,.411-.914,2.886,2.886,0,0,1,1.862-.687c.587.019,1.176.024,1.763,0a3.006,3.006,0,0,1,1.6.442,1.223,1.223,0,0,1,.729,1.241c-.013.162,0,.327,0,.561H48.926c-.248-.8-.469-.964-1.3-.98-.283,0-.566-.012-.847.006a.865.865,0,0,0-.935.97c-.011,1.835,0,3.67-.005,5.5,0,.377-.006.753,0,1.129.013.64.145.86.764.966a3.141,3.141,0,0,0,1.723-.09.657.657,0,0,0,.5-.67c-.009-.8.008-1.6-.012-2.4-.01-.392-.175-.5-.534-.416l-.976.217V22.82a3.169,3.169,0,0,1,2.353-.189,1.119,1.119,0,0,1,.863,1.189c.024.581.112,1.16.112,1.741,0,.626-.063,1.254-.121,1.879a1.311,1.311,0,0,1-.642.862,2.541,2.541,0,0,1-1.488.53c-.449.014-.9.057-1.356.057A3.979,3.979,0,0,1,45.728,28.7Zm-25.7.16a7.446,7.446,0,0,1-2.482-.291,1.621,1.621,0,0,1-1.187-1.684c0-1.458.017-2.916-.012-4.374A1.361,1.361,0,0,1,17,21.281a2.689,2.689,0,0,1,1.364-.479c.511-.022,1.022-.133,1.527-.108a6.635,6.635,0,0,1,1.569.269,1.674,1.674,0,0,1,1.378,1.9,2.945,2.945,0,0,1-.09.9,1.822,1.822,0,0,1-1.8,1.283c-.517.011-1.037.034-1.552,0a1.678,1.678,0,0,0-1.264.588.409.409,0,0,0-.079.251c-.013.164-.008.329-.008.493,0,.743.209,1.057.9,1.175a4.972,4.972,0,0,0,1.261.016,1.1,1.1,0,0,0,.979-.951h1.558a1.572,1.572,0,0,1-1.022,1.942,4.6,4.6,0,0,1-1.559.315Q20.1,28.867,20.023,28.864ZM18.6,22.118a.949.949,0,0,0-.525.589,6.531,6.531,0,0,0-.024,1.283c.381-.029.7-.05,1.013-.079.484-.044.969-.076,1.449-.148a.859.859,0,0,0,.639-.725.976.976,0,0,0-.58-.946,2.872,2.872,0,0,0-.946-.162A2.941,2.941,0,0,0,18.6,22.118ZM4.138,28.863c-.563-.019-1.127-.01-1.691-.007a3.17,3.17,0,0,1-1.592-.433A1.476,1.476,0,0,1,.082,26.68a5.063,5.063,0,0,0,.034-1.049,17.21,17.21,0,0,0-.095-2.166,1.563,1.563,0,0,1,.811-1.651,5.424,5.424,0,0,1,1.095-.425c.683-.208,1.38-.375,2.062-.585a1.1,1.1,0,0,0,.93-1.272c.008-.537,0-1.075,0-1.672H6.576c.01.2.027.378.027.557,0,2.8-.013,5.59,0,8.384a1.745,1.745,0,0,1-1.056,1.73,3.019,3.019,0,0,1-1.324.332Zm-.054-6.645c-.423.1-.85.189-1.27.3a1.355,1.355,0,0,0-1,1.031c-.011,1.032-.018,2.063,0,3.095a.924.924,0,0,0,.98.944c.281.013.563.009.844,0,.889-.019,1.3-.4,1.279-1.276-.027-1.376-.087-2.75-.135-4.126,0-.017-.029-.035-.109-.127C4.478,22.115,4.282,22.171,4.084,22.219Zm99.395,6.489a6.554,6.554,0,0,1-1.126-.513,1.051,1.051,0,0,1-.474-.963c.016-.823.005-1.646.005-2.468h0c0-.753.037-1.508-.011-2.256a1.255,1.255,0,0,1,.768-1.288,2.975,2.975,0,0,1,1.309-.421,13.006,13.006,0,0,1,1.383-.1,6.063,6.063,0,0,1,2.035.4,1.542,1.542,0,0,1,.988,1.465c.035,1.479.041,2.962,0,4.442a1.526,1.526,0,0,1-1.038,1.489,4.192,4.192,0,0,1-1.823.371c-.216-.014-.433-.007-.649,0-.123,0-.246.007-.368.007A2.681,2.681,0,0,1,103.478,28.708Zm.763-6.634a.821.821,0,0,0-.663.853c-.012.61,0,1.219,0,1.829,0,.656.012,1.313-.005,1.969a.662.662,0,0,0,.407.66,3,3,0,0,0,1.845.147.919.919,0,0,0,.841-.944c.051-1.195.039-2.393.005-3.587-.015-.5-.363-.776-.86-.934a2.488,2.488,0,0,0-.762-.121A2.734,2.734,0,0,0,104.242,22.074Zm14.492,6.639c-.191,0-.385,0-.583,0-.012-.188-.032-.344-.032-.5q0-2.855,0-5.711a3,3,0,0,1,.009-.423.92.92,0,0,1,.43-.655,5.471,5.471,0,0,1,3.685-.706,4.447,4.447,0,0,1,1.075.253A1.842,1.842,0,0,1,124.6,22.76c.005,1.857,0,3.714,0,5.57v.357h-1.609c-.151-.194-.072-.436-.073-.66q-.01-2.22,0-4.442c.007-1.269-.44-1.681-1.744-1.629a2.951,2.951,0,0,0-.993.273.627.627,0,0,0-.38.619c.01.541,0,1.081,0,1.621,0,1.384,0,2.769,0,4.225-.231.016-.459.02-.688.02Zm-32.412,0h-.809v-.461c0-1.929.016-3.857-.008-5.786a1.276,1.276,0,0,1,.629-1.173,2.844,2.844,0,0,1,1.428-.5c.511-.016,1.02-.115,1.53-.11a4.618,4.618,0,0,1,1.682.351A1.759,1.759,0,0,1,92,22.855c-.022,1.81,0,3.622,0,5.433,0,.115-.014.229-.024.4H90.309v-.708c0-1.482.017-2.964,0-4.444-.018-1.4-.442-1.505-1.582-1.58a4,4,0,0,0-1.208.273.29.29,0,0,0-.162.185,3.612,3.612,0,0,0-.153.814c-.014,1.576-.007,3.152-.007,4.727v.757ZM73.981,28.7V20.851h1.571c.112.517.152,6.2.05,7.847Zm-13.595-.01c0-.16,0-.294,0-.429,0-1.929.025-3.857-.012-5.786a1.211,1.211,0,0,1,.567-1.127,3.481,3.481,0,0,1,1.4-.561,17.579,17.579,0,0,1,2.263-.116,2.527,2.527,0,0,1-.288,1.207c-.492.066-.977.1-1.45.2-.629.13-.789.334-.791.945-.008,1.67,0,3.34-.009,5.009,0,.223.082.464-.072.658Zm43.714-8.33c.514-.7,1.019-1.335,1.454-2.011a1.286,1.286,0,0,1,1.4-.638,3.33,3.33,0,0,0,.468.018,3.125,3.125,0,0,1,.814.069c-.312.293-.533.523-.779.723-.576.467-1.184.9-1.743,1.385a1.887,1.887,0,0,1-1.324.467Q104.25,20.37,104.1,20.357Zm-15.715-.688a3.517,3.517,0,0,0-.921-.273.4.4,0,0,0-.53.329c-.057.332-.263.4-.557.382-.21-.014-.42,0-.624,0a1.29,1.29,0,0,1,.774-1.642,2.4,2.4,0,0,1,2.022.085c.3.136.587.283.881.422.57.268.748.21,1.056-.346.056-.1.116-.2.178-.307H91.83c-.04.241-.06.448-.11.648a1.466,1.466,0,0,1-1.464,1.144q-.088,0-.175,0A3.694,3.694,0,0,1,88.385,19.669Zm-14.431-.285c-.032-.5,0-1-.011-1.52H75.6v1.52Zm42.461-6.962c-.58-.012-1.161-.025-1.741-.02a12.728,12.728,0,0,1-2.276-.269,2.41,2.41,0,0,1-2.007-2.115,18.167,18.167,0,0,1-.178-1.948h3.741c.076.274.139.54.224.8a.644.644,0,0,0,.617.461,30.568,30.568,0,0,0,4.061.12,13.976,13.976,0,0,0,1.528-.129c.415-.05.556-.233.552-.637a.879.879,0,0,0-.607-.768,11.518,11.518,0,0,0-1.383-.143c-.456-.011-.912-.009-1.368-.008-.485,0-.969,0-1.453-.009-.839-.022-1.682-.05-2.513-.151a7.372,7.372,0,0,1-1.806-.434,1.876,1.876,0,0,1-1.025-1.088,7.378,7.378,0,0,1-.287-2.836,3.216,3.216,0,0,1,.141-1.1,2.693,2.693,0,0,1,2.38-1.86,40.272,40.272,0,0,1,6.44-.267c.437.009.873.085,1.311.119a12.048,12.048,0,0,1,1.318.11,2.626,2.626,0,0,1,1.96,1.6,5.3,5.3,0,0,1,.377,2.476h-3.745a3.4,3.4,0,0,0-.027-.47.79.79,0,0,0-.914-.746q-2.4-.009-4.8,0c-.542,0-.6.054-.643.432-.051.5.117.846.516.933a7.542,7.542,0,0,0,1.3.178q1.057.045,2.116.007a18.429,18.429,0,0,1,3.889.319,2.585,2.585,0,0,1,2.493,2.694,8.367,8.367,0,0,1,.109,1.314,6.121,6.121,0,0,1-.256,1.42,2.477,2.477,0,0,1-2.3,1.733c-.553.072-1.114.074-1.666.152a18.525,18.525,0,0,1-2.6.155C117.407,12.443,116.911,12.432,116.415,12.422Zm-12.314-.3c-.295-.511-.62-1.02-.887-1.559a.608.608,0,0,0-.643-.4c-2.211.015-4.421.008-6.679.008l-1.117,1.944h-4.4c.174-.411.315-.768.475-1.117.442-.963.85-1.946,1.357-2.874.283-.518.586-1.025.845-1.559.906-1.859,1.84-3.7,2.769-5.551.459-.912.317-.891.959-.869.117,0,.262.008.442.006C98.286.136,99.355.139,100.423.14l1.449,0h.742L108.5,12.02a10.164,10.164,0,0,1-2.251.153C105.6,12.174,104.863,12.155,104.1,12.117Zm-5.069-8.8c-.515,1.14-1.079,2.257-1.618,3.387a1.2,1.2,0,0,0-.047.33h4.23c-.654-1.364-1.29-2.693-1.934-4.038a.836.836,0,0,0-.2-.027C99.286,2.967,99.148,3.058,99.032,3.314ZM77.04,11.876c-.415-.808-.845-1.609-1.262-2.416q-1.311-2.54-2.613-5.082c-.229-.448-.454-.9-.731-1.446v9.193c-.423.02-.838.017-1.251.015-.192,0-.384,0-.575,0-.606,0-1.214,0-1.854,0V.155h.553c1.858,0,3.716.009,5.573-.006a.641.641,0,0,1,.694.43c.964,2.109,1.955,4.207,2.928,6.313a1.965,1.965,0,0,1,.1.535c.028.2-.031.435.242.576.012-.192.009-.371.037-.545a2.559,2.559,0,0,1,.148-.673c.945-2.055,1.911-4.1,2.853-6.16a.693.693,0,0,1,.742-.478c1.322.017,2.645.016,3.968.014h1.534c.091,0,.181.009.312.016V12.108H84.666V3.254c-.145.248-.306.488-.43.746Q82.511,7.573,80.8,11.153c-.148.311-.282.63-.442.988-.955,0-1.916-.005-2.875,0h-.007A.434.434,0,0,1,77.04,11.876Zm7.629-8.691a.194.194,0,0,0,0,.056,1.519,1.519,0,0,0,.119-.161c.005-.009-.041-.047-.063-.072C84.705,3.067,84.686,3.126,84.669,3.185Zm-33.5,8.938c-.135-.545-.19-9.653-.069-11.929a2.906,2.906,0,0,1,.386-.048q5.394,0,10.79,0a4.2,4.2,0,0,1,1.815.412A2.1,2.1,0,0,1,65.21,1.831a4.017,4.017,0,0,1,.267,1.5,14.865,14.865,0,0,1-.029,1.619A2.477,2.477,0,0,1,64.055,7a10.729,10.729,0,0,1,1.063.892,1.245,1.245,0,0,1,.33.736c.035,1.147.016,2.3.016,3.478h-3.8c0-.719.009-1.417,0-2.116-.014-.777-.336-1.1-1.107-1.1-1.2,0-2.409,0-3.614,0H54.9V12c-.051.048-.068.066-.085.08s-.035.041-.053.041H51.172ZM60.738,5.64c.647-.016.913-.31.924-.958,0-.117,0-.235,0-.352-.009-.723-.223-.939-.955-.941q-2.71-.005-5.42,0a2.692,2.692,0,0,0-.392.055V5.649h3.591C59.237,5.648,59.988,5.66,60.738,5.64ZM28.564,12.113a5.028,5.028,0,0,1-.066-1.43c-.018-.516,0-1.034,0-1.552V7.638H20.735v4.468H16.949V.189h3.71a5.768,5.768,0,0,1,.053,1.362c.016.446,0,.894,0,1.34V4.359h7.731a16.193,16.193,0,0,0,.044-2.086c.013-.679,0-1.358,0-2.079h3.772V12.113Zm6.765-.029c-.016-.017-.045-.035-.045-.053Q35.273,6.211,35.266.39a1.02,1.02,0,0,1,.053-.219H48.19a8,8,0,0,1,.046,1.445c.01.468,0,.936,0,1.483-1.84.015-3.671.013-5.51.012q-1.8,0-3.621,0V4.635h8.669V7.6H39.1V9.162h9.115v2.945H35.354l0,0Zm-29.96.022v-8.7H.138V.18h14.2V3.367H9.179v8.739Z" transform="translate(0 0)" fill="#3392e1"/>
</svg>
